<svg width="1024" height="1024" viewBox="0 0 1024 1024" fill="none" xmlns="http://www.w3.org/2000/svg" role="img" aria-label="Orbit logo">
  <defs>
    <radialGradient id="ringSheen" cx="0" cy="0" r="1" gradientUnits="userSpaceOnUse" gradientTransform="translate(356 748) rotate(-42) scale(660 180)">
      <stop offset="0" stop-color="#8f8a86"/><stop offset="0.2" stop-color="#f7f4f2"/><stop offset="0.5" stop-color="#ffffff"/><stop offset="0.78" stop-color="#bdb7b4"/><stop offset="1" stop-color="#ffffff"/>
    </radialGradient>
    <radialGradient id="nodeSheen" cx="0" cy="0" r="1" gradientUnits="userSpaceOnUse" gradientTransform="translate(756 422) rotate(43) scale(90)">
      <stop offset="0" stop-color="#fffdfb"/><stop offset="0.52" stop-color="#eee9e6"/><stop offset="1" stop-color="#ffffff"/>
    </radialGradient>
  </defs>
  <path d="M777.5 421.5C755.5 268.5 627.8 165.3 475.2 179.1C309 194.1 181.1 337.2 190.3 506.3C200 686.7 351.2 824.9 530.9 808.3C675.3 794.9 785.5 686.9 798.8 547.9" stroke="url(#ringSheen)" stroke-width="32" stroke-linecap="round"/>
  <path d="M777.5 421.5C755.5 268.5 627.8 165.3 475.2 179.1C309 194.1 181.1 337.2 190.3 506.3C200 686.7 351.2 824.9 530.9 808.3C675.3 794.9 785.5 686.9 798.8 547.9" stroke="#ffffff" stroke-opacity="0.9" stroke-width="9" stroke-linecap="round"/>
  <circle cx="774" cy="433" r="65" fill="url(#nodeSheen)" stroke="#ffffff" stroke-width="16"/><circle cx="774" cy="433" r="42" fill="none" stroke="#171717" stroke-width="9"/>
</svg>
